<?xml version="1.0" encoding="UTF-8"?>
<!DOCTYPE svg PUBLIC "-//W3C//DTD SVG 1.1//EN" "http://www.w3.org/Graphics/SVG/1.1/DTD/svg11.dtd">
<!-- Creator: CorelDRAW X7 -->
<?xml-stylesheet href="viber_1.css" type="text/css"?>
<svg xmlns="http://www.w3.org/2000/svg" xml:space="preserve" width="2550px" height="3300px" version="1.1" style="shape-rendering:geometricPrecision; text-rendering:geometricPrecision; image-rendering:optimizeQuality; fill-rule:evenodd; clip-rule:evenodd"
viewBox="0 0 2550 3300"
 xmlns:xlink="http://www.w3.org/1999/xlink"
 enable-background="new 0 0 24 24">
 <g id="Слой_x0020_1">
  <metadata id="CorelCorpID_0Corel-Layer"/>
  <path class="fil0" d="M897 2209c-2,97 -14,209 71,236 84,27 132,-40 241,-176 405,28 762,-86 810,-495 43,-363 -12,-635 -155,-764 -209,-200 -890,-228 -1139,10 -102,107 -152,263 -157,493 -4,187 -12,570 329,696l0 0zm-229 -694c4,-203 45,-338 128,-424 208,-199 824,-176 1000,-8 117,107 163,354 124,679 -35,299 -227,350 -299,369 -150,39 -293,48 -430,36 -36,-4 -50,30 -63,43 -66,78 -113,135 -125,143 -9,-14 -7,-77 -6,-128 -4,-23 17,-86 -37,-101 -303,-89 -296,-427 -292,-609l0 0z"/>
  <path class="fil0" d="M859 1382c54,106 106,295 306,458 69,58 277,190 358,190 116,0 249,-183 152,-265 -44,-43 -106,-85 -145,-108 0,0 0,0 0,0 -103,-59 -159,50 -165,54 -151,135 -335,-99 -206,-212 16,-20 111,-65 55,-170 -50,-90 -83,-121 -102,-147 -98,-123 -311,81 -253,200zm612 358c7,4 66,30 137,99 9,8 -51,95 -90,90 -7,-3 -62,-16 -179,-88 111,-38 110,-97 132,-101zm-445 -495c4,-2 7,-2 6,-3 20,27 48,53 94,135 12,23 -18,31 -37,51 -28,25 -48,54 -60,86 -41,-78 -60,-133 -78,-172 -8,-36 44,-79 75,-97l0 0z"/>
  <path class="fil0" d="M1329 1420c1,0 73,9 86,87 11,67 110,49 99,-16 -20,-121 -122,-164 -174,-170 -65,-8 -76,91 -11,99l0 0z"/>
  <path class="fil0" d="M1277 1204c1,0 159,-2 261,107 101,108 79,266 79,267 -10,65 88,82 98,16 2,-9 31,-207 -104,-351 -134,-144 -329,-139 -337,-139 -68,3 -60,106 3,100l0 0z"/>
 </g>
</svg>
